<?xml version="1.0" encoding="UTF-8"?>
<svg version="1.1" xmlns="http://www.w3.org/2000/svg" width="48" height="48">
<path d="M0 0 C15.18 0 30.36 0 46 0 C46 15.18 46 30.36 46 46 C30.82 46 15.64 46 0 46 C0 30.82 0 15.64 0 0 Z " fill="#232140" transform="translate(1,1)"/>
<path d="M0 0 C1.9375 1.1875 1.9375 1.1875 2.75 3.3125 C2.811875 3.93125 2.87375 4.55 2.9375 5.1875 C3.5975 5.1875 4.2575 5.1875 4.9375 5.1875 C6.62620844 8.76358847 7.0772368 10.44265051 5.9375 14.1875 C5.68871094 15.03828125 5.43992187 15.8890625 5.18359375 16.765625 C4.91675781 17.64734375 4.64992188 18.5290625 4.375 19.4375 C4.10558594 20.32953125 3.83617188 21.2215625 3.55859375 22.140625 C3.35363281 22.81609375 3.14867188 23.4915625 2.9375 24.1875 C2.2775 24.1875 1.6175 24.1875 0.9375 24.1875 C0.9375 24.8475 0.9375 25.5075 0.9375 26.1875 C-2.97863647 28.79825765 -6.51215609 28.33195536 -11.0625 28.1875 C-12.0525 28.1875 -13.0425 28.1875 -14.0625 28.1875 C-14.7225 28.1875 -15.3825 28.1875 -16.0625 28.1875 C-16.0625 27.1975 -16.0625 26.2075 -16.0625 25.1875 C-17.0525 25.1875 -18.0425 25.1875 -19.0625 25.1875 C-19.0625 21.1875 -19.0625 21.1875 -18.0625 20.1875 C-20.5375 19.1975 -20.5375 19.1975 -23.0625 18.1875 C-22.0625 16.1875 -22.0625 16.1875 -20.0625 14.1875 C-20.3925 13.5275 -20.7225 12.8675 -21.0625 12.1875 C-19.7425 12.1875 -18.4225 12.1875 -17.0625 12.1875 C-17.0625 11.5275 -17.0625 10.8675 -17.0625 10.1875 C-16.4025 10.1875 -15.7425 10.1875 -15.0625 10.1875 C-14.794375 9.40375 -14.52625 8.62 -14.25 7.8125 C-13.0625 5.1875 -13.0625 5.1875 -10.0625 3.1875 C-11.01125 3.6825 -11.96 4.1775 -12.9375 4.6875 C-16.0625 6.1875 -16.0625 6.1875 -18.0625 6.1875 C-18.0625 6.8475 -18.0625 7.5075 -18.0625 8.1875 C-18.7225 8.1875 -19.3825 8.1875 -20.0625 8.1875 C-20.0625 8.8475 -20.0625 9.5075 -20.0625 10.1875 C-20.7225 10.1875 -21.3825 10.1875 -22.0625 10.1875 C-23.1875 6.4375 -23.1875 6.4375 -22.0625 4.1875 C-21.4025 4.1875 -20.7425 4.1875 -20.0625 4.1875 C-19.7325 3.1975 -19.4025 2.2075 -19.0625 1.1875 C-12.98664047 -3.17465556 -6.8095355 -1.80661146 0 0 Z " fill="#333864" transform="translate(33.0625,7.8125)"/>
<path d="M0 0 C15.18 0 30.36 0 46 0 C46 3.96 46 7.92 46 12 C43.95880212 10.38405168 41.95927063 8.7143618 40 7 C40 6.34 40 5.68 40 5 C38.0085944 4.61866701 36.00720923 4.28674418 34 4 C33.67 4.33 33.34 4.66 33 5 C30.96875 4.94921875 30.96875 4.94921875 28.5 4.6875 C27.6853125 4.60886719 26.870625 4.53023438 26.03125 4.44921875 C25.3609375 4.30097656 24.690625 4.15273437 24 4 C23.67 3.34 23.34 2.68 23 2 C22.01 2 21.02 2 20 2 C17.94729537 3.84188612 17.94729537 3.84188612 17 6 C16.34 6 15.68 6 15 6 C15 6.66 15 7.32 15 8 C13.625 9.625 13.625 9.625 12 11 C11.34 11 10.68 11 10 11 C9.67 12.32 9.34 13.64 9 15 C8.34 15 7.68 15 7 15 C6.79147686 21.40629424 6.8416805 26.92972642 9 33 C6.00667261 32.0022242 5.05233685 31.2477975 3 29 C2.77825067 30.45635371 2.57301302 31.91522956 2.375 33.375 C2.20097656 34.59316406 2.20097656 34.59316406 2.0234375 35.8359375 C2.01570312 36.55007812 2.00796875 37.26421875 2 38 C2.66 38.66 3.32 39.32 4 40 C3.67 40.99 3.34 41.98 3 43 C3.7734375 42.6596875 3.7734375 42.6596875 4.5625 42.3125 C8.28807032 41.83486278 10.64516304 43.38709761 14 45 C14 45.33 14 45.66 14 46 C9.38 46 4.76 46 0 46 C0 30.82 0 15.64 0 0 Z " fill="#15233D" transform="translate(1,1)"/>
<path d="M0 0 C2.34138209 3.65840951 2 6.75721996 2 11 C2.66 11.66 3.32 12.32 4 13 C4 15 4 15 3 17 C-0.0625 18.25 -0.0625 18.25 -3 19 C-3 19.66 -3 20.32 -3 21 C-4.99954746 21.04254356 -7.00041636 21.04080783 -9 21 C-9.33 20.67 -9.66 20.34 -10 20 C-11.68608966 19.92794489 -13.37500659 19.91613932 -15.0625 19.9375 C-15.98160156 19.94652344 -16.90070312 19.95554687 -17.84765625 19.96484375 C-18.55792969 19.97644531 -19.26820312 19.98804687 -20 20 C-20 19.01 -20 18.02 -20 17 C-22.64 16.67 -25.28 16.34 -28 16 C-29.04449911 12.86650268 -28.93423645 12.01031744 -28 9 C-25 10 -25 10 -24 12 C-19.64380026 13.76970614 -16.36008675 12.33805644 -12.18359375 10.7890625 C-10.13736743 10.04963904 -8.11801209 9.48988035 -6 9 C-6 8.34 -6 7.68 -6 7 C-5.34 7 -4.68 7 -4 7 C-3.71125 6.21625 -3.4225 5.4325 -3.125 4.625 C-2 2 -2 2 0 0 Z " fill="#442946" transform="translate(40,25)"/>
<path d="M0 0 C0.66 0.66 1.32 1.32 2 2 C0.824375 2.0928125 0.824375 2.0928125 -0.375 2.1875 C-1.24125 2.455625 -2.1075 2.72375 -3 3 C-4.37466625 5.47636012 -4.37466625 5.47636012 -5 8 C-5.66 8 -6.32 8 -7 8 C-7 8.66 -7 9.32 -7 10 C-8.3125 11.4375 -8.3125 11.4375 -10 13 C-10.556875 13.556875 -11.11375 14.11375 -11.6875 14.6875 C-12.3371875 15.3371875 -12.3371875 15.3371875 -13 16 C-11.02 16.33 -9.04 16.66 -7 17 C-7 18.32 -7 19.64 -7 21 C-7.66 21 -8.32 21 -9 21 C-9 21.66 -9 22.32 -9 23 C-8.01 23 -7.02 23 -6 23 C-6 23.99 -6 24.98 -6 26 C-5.34 26 -4.68 26 -4 26 C-3.67 25.34 -3.34 24.68 -3 24 C-0.03 24.66 2.94 25.32 6 26 C6 26.33 6 26.66 6 27 C-1.94895276 29.25133738 -1.94895276 29.25133738 -5.875 28.3125 C-7.91521227 27.05236889 -9.43583908 25.81113369 -11 24 C-10.67 24.99 -10.34 25.98 -10 27 C-10.4375 29.1875 -10.4375 29.1875 -11 31 C-10.05125 30.979375 -9.1025 30.95875 -8.125 30.9375 C-5 31 -5 31 -3 32 C-3 32.99 -3 33.98 -3 35 C-2.34 35.33 -1.68 35.66 -1 36 C-1.99 36 -2.98 36 -4 36 C-4.66 35.34 -5.32 34.68 -6 34 C-8.50636622 33.17887487 -11.03625656 32.53704728 -13.58984375 31.87890625 C-16.1102147 30.95980825 -17.28887006 30.02737838 -19 28 C-17.02 26.68 -15.04 25.36 -13 24 C-13.495 23.01 -13.99 22.02 -14.5 21 C-16.66668136 15.97166401 -16.74505575 11.23516726 -15 6 C-14.01 6 -13.02 6 -12 6 C-12 6.66 -12 7.32 -12 8 C-11.34 8 -10.68 8 -10 8 C-10 7.34 -10 6.68 -10 6 C-9.34 6 -8.68 6 -8 6 C-8 5.34 -8 4.68 -8 4 C-5.36 2.68 -2.72 1.36 0 0 Z " fill="#373556" transform="translate(23,10)"/>
<path d="M0 0 C2.25 -0.375 2.25 -0.375 5 0 C10.94502467 6.77072254 10.09736337 14.50898562 9.9375 23.01171875 C9.990902 25.56500196 10.24600185 27.57895905 11 30 C10.34 30.33 9.68 30.66 9 31 C6.45773344 28.35180567 6.00682449 27.19449806 5.875 23.4375 C5.91625 22.303125 5.9575 21.16875 6 20 C5.67 19.01 5.34 18.02 5 17 C4.01 17.66 3.02 18.32 2 19 C2.94933899 15.64566891 3.89748835 12.30753495 5 9 C4.34 8.67 3.68 8.34 3 8 C3 6.68 3 5.36 3 4 C2.34 4 1.68 4 1 4 C0.67 2.68 0.34 1.36 0 0 Z " fill="#27254C" transform="translate(35,9)"/>
<path d="M0 0 C5.94 0 11.88 0 18 0 C15.64046906 2.35953094 14.22104383 2.49141413 11 3 C10.34 5.31 9.68 7.62 9 10 C6.69 9.67 4.38 9.34 2 9 C2.08378906 9.60328125 2.16757812 10.2065625 2.25390625 10.828125 C2.35574219 11.62734375 2.45757812 12.4265625 2.5625 13.25 C2.66691406 14.03890625 2.77132813 14.8278125 2.87890625 15.640625 C3.00133594 18.02602928 2.64601605 19.71994334 2 22 C1.96213099 23.66623639 1.95372155 25.33397597 2 27 C1.34 27 0.68 27 0 27 C0 18.09 0 9.18 0 0 Z " fill="#111A2E" transform="translate(1,1)"/>
<path d="M0 0 C0.99 0.66 1.98 1.32 3 2 C2.67 2.66 2.34 3.32 2 4 C1.01 3.34 0.02 2.68 -1 2 C-1.99 2.33 -2.98 2.66 -4 3 C-4 3.66 -4 4.32 -4 5 C-2.68 5.33 -1.36 5.66 0 6 C0.625 7.875 0.625 7.875 1 10 C-1 12 -1 12 -3.625 12.125 C-4.40875 12.08375 -5.1925 12.0425 -6 12 C-7 5.375 -7 5.375 -7 2 C-8.7089129 3.5787681 -8.7089129 3.5787681 -10 6 C-10.00668717 9.62057268 -10.00668717 9.62057268 -9 13 C-6.17092329 15.34560055 -6.17092329 15.34560055 -2.9375 14.6875 C-0.0868577 14.1399374 -0.0868577 14.1399374 2 13 C1.67 13.99 1.34 14.98 1 16 C0.34 16 -0.32 16 -1 16 C-1 16.66 -1 17.32 -1 18 C-9.21818182 17.20979021 -9.21818182 17.20979021 -12 14 C-13.10143764 9.50952348 -13.50395987 5.41161562 -12 1 C-7.52242712 -2.33214726 -4.97509795 -2.32171237 0 0 Z " fill="#327796" transform="translate(31,15)"/>
<path d="M0 0 C0.66 1.32 1.32 2.64 2 4 C1.34 4 0.68 4 0 4 C0.33 6.31 0.66 8.62 1 11 C3.02045442 10.39816251 5.02111039 9.72693904 7 9 C7.33 8.34 7.66 7.68 8 7 C8.66 7 9.32 7 10 7 C10.75 10.25 10.75 10.25 11 14 C8.82946501 16.94572605 7.47817177 17.84060941 4 19 C1.64811553 18.40206327 -0.68925595 17.74118205 -3 17 C-3 16.34 -3 15.68 -3 15 C1.455 15.99 1.455 15.99 6 17 C6 16.34 6 15.68 6 15 C6.33 14.67 6.66 14.34 7 14 C6.0925 14.226875 5.185 14.45375 4.25 14.6875 C1 15 1 15 -1.3125 14 C-3.81388154 11.03539965 -4 8.83750808 -4 5 C-2.0625 2.0625 -2.0625 2.0625 0 0 Z " fill="#30537B" transform="translate(24,16)"/>
<path d="M0 0 C0.99 0.33 1.98 0.66 3 1 C3 1.66 3 2.32 3 3 C4.32 3.66 5.64 4.32 7 5 C5.02 5.99 3.04 6.98 1 8 C4.01447835 10.57075841 6.35979771 11.52207066 10.25 12.1875 C11.14203125 12.34605469 12.0340625 12.50460938 12.953125 12.66796875 C13.96632813 12.83232422 13.96632813 12.83232422 15 13 C15 13.99 15 14.98 15 16 C15.99 15.67 16.98 15.34 18 15 C20.33299825 14.96045766 22.66708189 14.95598268 25 15 C20.5366976 17.97553493 16.23631375 17.38314491 11 17 C7.625 16.0625 7.625 16.0625 5 15 C3.33911955 14.63893903 1.67381019 14.29537827 0 14 C-0.144375 13.38125 -0.28875 12.7625 -0.4375 12.125 C-0.93152225 9.96741678 -0.93152225 9.96741678 -2 8 C-1.66015625 6.0546875 -1.66015625 6.0546875 -1.0625 3.875 C-0.86785156 3.15054688 -0.67320312 2.42609375 -0.47265625 1.6796875 C-0.31667969 1.12539063 -0.16070312 0.57109375 0 0 Z " fill="#222B49" transform="translate(4,30)"/>
<path d="M0 0 C0.61875 0.309375 1.2375 0.61875 1.875 0.9375 C1.875 1.5975 1.875 2.2575 1.875 2.9375 C1.070625 2.73125 0.26625 2.525 -0.5625 2.3125 C-6.72211744 1.66411922 -12.51291453 3.40300979 -18.125 5.9375 C-18.125 6.5975 -18.125 7.2575 -18.125 7.9375 C-18.785 7.9375 -19.445 7.9375 -20.125 7.9375 C-20.125 8.5975 -20.125 9.2575 -20.125 9.9375 C-20.785 9.9375 -21.445 9.9375 -22.125 9.9375 C-23.25 6.1875 -23.25 6.1875 -22.125 3.9375 C-21.465 3.9375 -20.805 3.9375 -20.125 3.9375 C-19.795 2.9475 -19.465 1.9575 -19.125 0.9375 C-13.1015024 -3.38706238 -6.67233714 -2.26859463 0 0 Z " fill="#4A376D" transform="translate(33.125,8.0625)"/>
<path d="M0 0 C-0.06006078 1.45947705 -0.1488689 2.91779272 -0.25 4.375 C-0.31960937 5.59316406 -0.31960937 5.59316406 -0.390625 6.8359375 C-1 9 -1 9 -2.91015625 10.33203125 C-5 11 -5 11 -7.1875 10.3125 C-9 9 -9 9 -10 6 C-6.98968256 5.06576355 -6.13349732 4.95550089 -3 6 C-5.71558321 4.26638076 -5.71558321 4.26638076 -9 3 C-11.67145537 3.80161791 -11.67145537 3.80161791 -14 5 C-14.99 4.67 -15.98 4.34 -17 4 C-12.17441236 -1.96102003 -6.65740643 -2.58144331 0 0 Z " fill="#2F3868" transform="translate(36,11)"/>
<path d="M0 0 C5.28 0 10.56 0 16 0 C16 3.96 16 7.92 16 12 C13.95880212 10.38405168 11.95927063 8.7143618 10 7 C10 6.34 10 5.68 10 5 C7.03 4.67 4.06 4.34 1 4 C0.67 2.68 0.34 1.36 0 0 Z " fill="#181930" transform="translate(31,1)"/>
<path d="M0 0 C0.33 0 0.66 0 1 0 C0.96519531 0.97839844 0.96519531 0.97839844 0.9296875 1.9765625 C0.84422061 6.11560198 0.80401962 9.41205885 2.125 13.375 C3 16 3 16 2.125 18.375 C1.75375 18.91125 1.3825 19.4475 1 20 C0.34 20 -0.32 20 -1 20 C-1 19.01 -1 18.02 -1 17 C-1.99 17 -2.98 17 -4 17 C-4 13 -4 13 -3 12 C-5.475 11.01 -5.475 11.01 -8 10 C-7 8 -7 8 -5 6 C-5.33 5.34 -5.66 4.68 -6 4 C-4.68 4 -3.36 4 -2 4 C-2 3.34 -2 2.68 -2 2 C-1.34 2 -0.68 2 0 2 C0 1.34 0 0.68 0 0 Z " fill="#383F66" transform="translate(18,16)"/>
<path d="M0 0 C0.33 0.66 0.66 1.32 1 2 C0.67 2.66 0.34 3.32 0 4 C-0.66 4 -1.32 4 -2 4 C-2.33 5.32 -2.66 6.64 -3 8 C-2.34 8.33 -1.68 8.66 -1 9 C-4.00299655 10.50149828 -7.08476691 10.18438425 -10.375 10.1875 C-11.38433594 10.20586914 -11.38433594 10.20586914 -12.4140625 10.22460938 C-16.11861843 10.23554802 -18.85490643 10.04027865 -22 8 C-19.98024859 7.47686619 -17.972119 6.9947068 -15.921875 6.60546875 C-10.48380758 5.55893419 -4.05777598 4.05777598 0 0 Z " fill="#A46468" transform="translate(38,31)"/>
<path d="M0 0 C0.99 0.33 1.98 0.66 3 1 C3.2578125 1.65742187 3.515625 2.31484375 3.78125 2.9921875 C4.88567847 5.33970989 4.88567847 5.33970989 7.96875 5.7578125 C9.71671875 5.93957031 9.71671875 5.93957031 11.5 6.125 C17.808933 6.808933 17.808933 6.808933 20 9 C19.01 9 18.02 9 17 9 C17 9.66 17 10.32 17 11 C14.03 11 11.06 11 8 11 C8 10.01 8 9.02 8 8 C5.36 7.67 2.72 7.34 0 7 C-1.04449911 3.86650268 -0.93423645 3.01031744 0 0 Z " fill="#774A64" transform="translate(12,34)"/>
<path d="M0 0 C0.66 0 1.32 0 2 0 C2 3.63 2 7.26 2 11 C-4.93 11 -11.86 11 -19 11 C-17.68 10.01 -16.36 9.02 -15 8 C-14.67 8.66 -14.34 9.32 -14 10 C-12.02 10 -10.04 10 -8 10 C-8 9.34 -8 8.68 -8 8 C-7.05125 7.5875 -6.1025 7.175 -5.125 6.75 C-1.98822935 4.99340844 -1.10384361 4.31153082 0 1 C0 0.67 0 0.34 0 0 Z " fill="#361D39" transform="translate(45,36)"/>
<path d="M0 0 C0.66 0.66 1.32 1.32 2 2 C0.824375 2.0928125 0.824375 2.0928125 -0.375 2.1875 C-1.24125 2.455625 -2.1075 2.72375 -3 3 C-4.37466625 5.47636012 -4.37466625 5.47636012 -5 8 C-5.66 8 -6.32 8 -7 8 C-7 8.66 -7 9.32 -7 10 C-8.3125 11.4375 -8.3125 11.4375 -10 13 C-10.556875 13.556875 -11.11375 14.11375 -11.6875 14.6875 C-12.120625 15.120625 -12.55375 15.55375 -13 16 C-12.34 16.33 -11.68 16.66 -11 17 C-11.99 17 -12.98 17 -14 17 C-15.41687119 12.74938644 -14.19320039 10.28148375 -13 6 C-12.67 6.66 -12.34 7.32 -12 8 C-11.34 8 -10.68 8 -10 8 C-10 7.34 -10 6.68 -10 6 C-9.34 6 -8.68 6 -8 6 C-8 5.34 -8 4.68 -8 4 C-5.36 2.68 -2.72 1.36 0 0 Z " fill="#2F2B4D" transform="translate(23,10)"/>
<path d="M0 0 C1.32 0 2.64 0 4 0 C4 1.32 4 2.64 4 4 C3.34 4 2.68 4 2 4 C2 4.66 2 5.32 2 6 C2.99 6 3.98 6 5 6 C5 6.99 5 7.98 5 9 C5.66 9 6.32 9 7 9 C7.33 8.34 7.66 7.68 8 7 C12.455 7.99 12.455 7.99 17 9 C17 9.33 17 9.66 17 10 C9.09668874 12.2384106 9.09668874 12.2384106 5.125 11.375 C2.74026831 9.83193832 1.51903201 8.3870503 0 6 C-0.66 5.01 -1.32 4.02 -2 3 C-1.34 2.01 -0.68 1.02 0 0 Z " fill="#542B42" transform="translate(12,27)"/>
<path d="M0 0 C-0.33 0.66 -0.66 1.32 -1 2 C-1.66 2 -2.32 2 -3 2 C-3.33 3.32 -3.66 4.64 -4 6 C-4.66 6 -5.32 6 -6 6 C-6 6.66 -6 7.32 -6 8 C-6.66 8 -7.32 8 -8 8 C-8 8.66 -8 9.32 -8 10 C-8.66 10 -9.32 10 -10 10 C-11.125 6.25 -11.125 6.25 -10 4 C-9.34 4 -8.68 4 -8 4 C-7.67 3.01 -7.34 2.02 -7 1 C-2.55696203 -1.27848101 -2.55696203 -1.27848101 0 0 Z " fill="#633E5F" transform="translate(21,8)"/>
<path d="M0 0 C0.66 1.32 1.32 2.64 2 4 C1.34 4 0.68 4 0 4 C0.33 6.97 0.66 9.94 1 13 C0.01 13 -0.98 13 -2 13 C-3.70401547 10.39385869 -4.00613718 9.10024068 -3.8125 5.9375 C-2.9940468 2.97847688 -2.37339853 1.85744232 0 0 Z " fill="#117B8E" transform="translate(24,16)"/>
<path d="M0 0 C2.9375 0.75 2.9375 0.75 4.9375 2.75 C5.9275 3.08 6.9175 3.41 7.9375 3.75 C7.9375 4.41 7.9375 5.07 7.9375 5.75 C7.11765625 5.66621094 6.2978125 5.58242187 5.453125 5.49609375 C4.37546875 5.39425781 3.2978125 5.29242187 2.1875 5.1875 C1.12015625 5.08308594 0.0528125 4.97867187 -1.046875 4.87109375 C-3.70391204 4.76439926 -5.56210572 4.93069605 -8.0625 5.75 C-6.28660926 1.6517906 -4.79951132 -0.39179684 0 0 Z " fill="#20274A" transform="translate(24.0625,2.25)"/>
<path d="M0 0 C2.475 0.99 2.475 0.99 5 2 C5 3.65 5 5.3 5 7 C3.25 8.125 3.25 8.125 1 9 C-1.1875 8.3125 -1.1875 8.3125 -3 7 C-3.33 6.01 -3.66 5.02 -4 4 C-0.98968256 3.06576355 -0.13349732 2.95550089 3 4 C1.68 3.01 0.36 2.02 -1 1 C-0.67 0.67 -0.34 0.34 0 0 Z " fill="#2C547A" transform="translate(30,13)"/>
<path d="M0 0 C2.125 0.375 2.125 0.375 4 1 C4.625 2.875 4.625 2.875 5 5 C3 7 3 7 0.375 7.125 C-0.40875 7.08375 -1.1925 7.0425 -2 7 C-2.125 4.625 -2.125 4.625 -2 2 C-1.34 1.34 -0.68 0.68 0 0 Z " fill="#6D87B2" transform="translate(27,20)"/>
<path d="M0 0 C0.66 0 1.32 0 2 0 C1.67 3.63 1.34 7.26 1 11 C1.99 11 2.98 11 4 11 C4 13.33333333 4 15.66666667 4 18 C3.34 18 2.68 18 2 18 C-0.68407013 12.63185975 -1.40013509 9.00202636 -1 3 C-0.67 2.01 -0.34 1.02 0 0 Z " fill="#6F4761" transform="translate(8,16)"/>
<path d="M0 0 C0.33 0.99 0.66 1.98 1 3 C1.680625 2.608125 2.36125 2.21625 3.0625 1.8125 C7.29649749 0.64139431 9.14937286 2.03693518 13 4 C13 4.33 13 4.66 13 5 C8.38 5 3.76 5 -1 5 C-0.67 3.35 -0.34 1.7 0 0 Z " fill="#141F36" transform="translate(2,42)"/>
<path d="M0 0 C2 1 2 1 2.75 3 C3.88940733 5.31028407 3.88940733 5.31028407 6.875 5.875 C10.04682188 6.00187288 11.38930678 5.70699172 14 4 C13.67 4.99 13.34 5.98 13 7 C12.34 7 11.68 7 11 7 C11 7.66 11 8.32 11 9 C2.87377911 8.21863261 2.87377911 8.21863261 0 5 C-0.25 2.3125 -0.25 2.3125 0 0 Z " fill="#4397B1" transform="translate(19,24)"/>
<path d="M0 0 C1.32 0.33 2.64 0.66 4 1 C4.33 2.32 4.66 3.64 5 5 C1.36576791 7.32590854 -1.77088331 7.16265833 -6 7 C-6 6.67 -6 6.34 -6 6 C-4.35 5.67 -2.7 5.34 -1 5 C-0.67 3.35 -0.34 1.7 0 0 Z " fill="#5B3450" transform="translate(36,35)"/>
<path d="M0 0 C0.33 0 0.66 0 1 0 C0.97679687 0.66386719 0.95359375 1.32773437 0.9296875 2.01171875 C0.76375695 8.72861016 0.76375695 8.72861016 3 15 C0 14 0 14 -0.984375 12.0390625 C-1.23703125 11.24242187 -1.4896875 10.44578125 -1.75 9.625 C-2.01296875 8.83351563 -2.2759375 8.04203125 -2.546875 7.2265625 C-3 5 -3 5 -2 2 C-1.34 2 -0.68 2 0 2 C0 1.34 0 0.68 0 0 Z " fill="#1A5473" transform="translate(18,16)"/>
<path d="M0 0 C3.96 0 7.92 0 12 0 C11.01 0.33 10.02 0.66 9 1 C9 1.66 9 2.32 9 3 C6.03 3 3.06 3 0 3 C0 2.01 0 1.02 0 0 Z " fill="#58476E" transform="translate(20,42)"/>
<path d="M0 0 C0.99 0.495 0.99 0.495 2 1 C2.26277955 2.97084661 2.51911588 4.94324415 2.71484375 6.921875 C3.0670056 9.48831477 3.90398302 11.66183045 5 14 C4.01 14.495 4.01 14.495 3 15 C0.03090402 11.72698081 -0.34354794 9.61934238 -0.1875 5.25 C-0.16042969 4.26515625 -0.13335937 3.2803125 -0.10546875 2.265625 C-0.07066406 1.51796875 -0.03585938 0.7703125 0 0 Z " fill="#382646" transform="translate(41,25)"/>
<path d="M0 0 C2.46301423 2.46301423 2.76766521 4.27360036 3.625 7.625 C3.88539062 8.62789062 4.14578125 9.63078125 4.4140625 10.6640625 C4.60742188 11.43492188 4.80078125 12.20578125 5 13 C4.01 12.67 3.02 12.34 2 12 C1.67 10.35 1.34 8.7 1 7 C0.34 7 -0.32 7 -1 7 C-1.04254356 5.00045254 -1.04080783 2.99958364 -1 1 C-0.67 0.67 -0.34 0.34 0 0 Z " fill="#2B2543" transform="translate(5,21)"/>
<path d="M0 0 C-0.33 1.32 -0.66 2.64 -1 4 C-2.98 4.33 -4.96 4.66 -7 5 C-7.33 4.34 -7.66 3.68 -8 3 C-7.67 2.34 -7.34 1.68 -7 1 C-4.61370553 0.38812962 -2.46459429 0 0 0 Z " fill="#286082" transform="translate(32,26)"/>
<path d="M0 0 C-0.61875 0.721875 -1.2375 1.44375 -1.875 2.1875 C-3.83666353 4.78381938 -4.95316 6.94671666 -6 10 C-7.2380014 6.42355152 -6.74926071 3.66305234 -6 0 C-3 -1 -3 -1 0 0 Z " fill="#2D889F" transform="translate(25,16)"/>
<path d="M0 0 C0.66 0.99 1.32 1.98 2 3 C1.360625 3.12375 0.72125 3.2475 0.0625 3.375 C-0.618125 3.58125 -1.29875 3.7875 -2 4 C-2.33 4.66 -2.66 5.32 -3 6 C-2.01 6.33 -1.02 6.66 0 7 C-0.99 7.495 -0.99 7.495 -2 8 C-3.65 6.68 -5.3 5.36 -7 4 C-4.69 2.68 -2.38 1.36 0 0 Z " fill="#2B3250" transform="translate(11,34)"/>
<path d="M0 0 C0.625 1.8125 0.625 1.8125 1 4 C-1.21934164 7.32901247 -2.34683329 7.75023244 -6 9 C-6 8.34 -6 7.68 -6 7 C-5.34 7 -4.68 7 -4 7 C-3.71125 6.21625 -3.4225 5.4325 -3.125 4.625 C-2 2 -2 2 0 0 Z " fill="#573652" transform="translate(40,25)"/>
<path d="M0 0 C-1.9626228 2.04795423 -3.4277307 2.94976638 -6.26953125 3.19921875 C-8.51954383 3.18858877 -10.75385562 3.12958525 -13 3 C-8.8341563 0.22277086 -4.9360889 -1.89849573 0 0 Z " fill="#793B48" transform="translate(34,36)"/>
<path d="M0 0 C0 0.66 0 1.32 0 2 C-0.66 2 -1.32 2 -2 2 C-2.33 3.32 -2.66 4.64 -3 6 C-3.66 6 -4.32 6 -5 6 C-5.33 6.99 -5.66 7.98 -6 9 C-6.1875 5.625 -6.1875 5.625 -6 2 C-3 0 -3 0 0 0 Z " fill="#2B223C" transform="translate(13,10)"/>
<path d="M0 0 C0 0.66 0 1.32 0 2 C0.66 2.33 1.32 2.66 2 3 C0.8553125 2.938125 0.8553125 2.938125 -0.3125 2.875 C-3.22718416 2.77919176 -3.22718416 2.77919176 -6 5 C-6.99 4.67 -7.98 4.34 -9 4 C-6.19632015 0.92930303 -4.26207314 0 0 0 Z " fill="#17466A" transform="translate(28,11)"/>
<path d="M0 0 C3.48670834 1.1094072 6.77484237 2.26337666 10 4 C10 4.66 10 5.32 10 6 C5.545 5.01 5.545 5.01 1 4 C0.67 2.68 0.34 1.36 0 0 Z " fill="#1E2642" transform="translate(7,41)"/>
<path d="M0 0 C0.66 0 1.32 0 2 0 C1.38461538 5.53846154 1.38461538 5.53846154 -0.5625 7.875 C-1.036875 8.24625 -1.51125 8.6175 -2 9 C-2 6.69 -2 4.38 -2 2 C-1.34 2 -0.68 2 0 2 C0 1.34 0 0.68 0 0 Z " fill="#2B2A50" transform="translate(13,16)"/>
<path d="M0 0 C-0.33 0.66 -0.66 1.32 -1 2 C-1.66 2 -2.32 2 -3 2 C-3.33 2.99 -3.66 3.98 -4 5 C-4 4.34 -4 3.68 -4 3 C-5.32 3.33 -6.64 3.66 -8 4 C-7 1 -7 1 -4.5625 -0.25 C-2 -1 -2 -1 0 0 Z " fill="#634478" transform="translate(21,8)"/>
<path d="M0 0 C0 1.32 0 2.64 0 4 C-2.64 4 -5.28 4 -8 4 C-2.7826087 0 -2.7826087 0 0 0 Z " fill="#2F1931" transform="translate(47,43)"/>
<path d="M0 0 C-1.98 0.66 -3.96 1.32 -6 2 C-6 2.66 -6 3.32 -6 4 C-7.32 3.67 -8.64 3.34 -10 3 C-10 2.34 -10 1.68 -10 1 C-8.71073008 0.63720544 -7.41846728 0.28503302 -6.125 -0.0625 C-5.40570313 -0.25972656 -4.68640625 -0.45695312 -3.9453125 -0.66015625 C-2 -1 -2 -1 0 0 Z " fill="#3D2441" transform="translate(43,42)"/>
<path d="M0 0 C0.99 0.33 1.98 0.66 3 1 C3.33 2.98 3.66 4.96 4 7 C2.68 7 1.36 7 0 7 C-1.04449911 3.86650268 -0.93423645 3.01031744 0 0 Z " fill="#5B4362" transform="translate(12,34)"/>
<path d="M0 0 C1.32 0 2.64 0 4 0 C4 1.32 4 2.64 4 4 C3.34 4 2.68 4 2 4 C1.67 4.66 1.34 5.32 1 6 C0.01 5.01 -0.98 4.02 -2 3 C-1.34 2.01 -0.68 1.02 0 0 Z " fill="#2A284C" transform="translate(12,27)"/>
<path d="M0 0 C0.99 0 1.98 0 3 0 C3 2.33333333 3 4.66666667 3 7 C2.34 7 1.68 7 1 7 C0.34 5.02 -0.32 3.04 -1 1 C-0.67 0.67 -0.34 0.34 0 0 Z " fill="#5B4362" transform="translate(9,27)"/>
<path d="M0 0 C0.33 0 0.66 0 1 0 C1.25 3.3125 1.25 3.3125 1 7 C-1 8.9375 -1 8.9375 -3 10 C-2.05066101 6.64566891 -1.10251165 3.30753495 0 0 Z " fill="#362B55" transform="translate(40,18)"/>
<path d="M0 0 C0.99 0.33 1.98 0.66 3 1 C2.34 1 1.68 1 1 1 C1.20625 1.78375 1.4125 2.5675 1.625 3.375 C1.810625 4.674375 1.810625 4.674375 2 6 C1.34 6.66 0.68 7.32 0 8 C-1.125 5.6875 -1.125 5.6875 -2 3 C-1.34 2.01 -0.68 1.02 0 0 Z " fill="#1C8598" transform="translate(23,19)"/>
</svg>
